HIERARCHY
ROOT Hips
{
	OFFSET 0.00000 0.00000 0.00000
	CHANNELS 6 Xposition Yposition Zposition Zrotation Yrotation Xrotation 
	JOINT LHipJoint
	{
		OFFSET 0 0 0
		CHANNELS 3 Zrotation Yrotation Xrotation
		JOINT LeftUpLeg
		{
			OFFSET 1.38280 -1.96574 0.54427
			CHANNELS 3 Zrotation Yrotation Xrotation
			JOINT LeftLeg
			{
				OFFSET 2.72096 -7.47578 0.00000
				CHANNELS 3 Zrotation Yrotation Xrotation
				JOINT LeftFoot
				{
					OFFSET 2.73041 -7.50176 0.00000
					CHANNELS 3 Zrotation Yrotation Xrotation
					JOINT LeftToeBase
					{
						OFFSET 0.16150 -0.44371 2.18031
						CHANNELS 3 Zrotation Yrotation Xrotation
						End Site
						{
							OFFSET 0.00000 -0.00000 1.12127
						}
					}
				}
			}
		}
	}
	JOINT RHipJoint
	{
		OFFSET 0 0 0
		CHANNELS 3 Zrotation Yrotation Xrotation
		JOINT RightUpLeg
		{
			OFFSET -1.57224 -1.96575 0.54427
			CHANNELS 3 Zrotation Yrotation Xrotation
			JOINT RightLeg
			{
				OFFSET -2.95935 -8.13076 0.00000
				CHANNELS 3 Zrotation Yrotation Xrotation
				JOINT RightFoot
				{
					OFFSET -2.52345 -6.93311 0.00000
					CHANNELS 3 Zrotation Yrotation Xrotation
					JOINT RightToeBase
					{
						OFFSET -0.04475 -0.10171 1.86688
						CHANNELS 3 Zrotation Yrotation Xrotation
						End Site
						{
							OFFSET -0.00000 -0.00000 0.95157
						}
					}
				}
			}
		}
	}
	JOINT LowerBack
	{
		OFFSET 0 0 0
		CHANNELS 3 Zrotation Yrotation Xrotation
		JOINT Spine
		{
			OFFSET 0.00669 2.07367 0.09104
			CHANNELS 3 Zrotation Yrotation Xrotation
			JOINT Spine1
			{
				OFFSET -0.00664 2.06198 -0.04732
				CHANNELS 3 Zrotation Yrotation Xrotation
				JOINT Neck
				{
					OFFSET 0 0 0
					CHANNELS 3 Zrotation Yrotation Xrotation
					JOINT Neck1
					{
						OFFSET -0.00021 1.49948 0.16345
						CHANNELS 3 Zrotation Yrotation Xrotation
						JOINT Head
						{
							OFFSET 0.06080 1.50567 -0.26702
							CHANNELS 3 Zrotation Yrotation Xrotation
							End Site
							{
								OFFSET 0.01726 1.56470 -0.11854
							}
						}
					}
				}
				JOINT LeftShoulder
				{
					OFFSET 0 0 0
					CHANNELS 3 Zrotation Yrotation Xrotation
					JOINT LeftArm
					{
						OFFSET 3.14993 0.82932 -0.22488
						CHANNELS 3 Zrotation Yrotation Xrotation
						JOINT LeftForeArm
						{
							OFFSET 5.68236 -0.00000 -0.00000
							CHANNELS 3 Zrotation Yrotation Xrotation
							JOINT LeftHand
							{
								OFFSET 3.17112 -0.00000 0.00000
								CHANNELS 3 Zrotation Yrotation Xrotation
								JOINT LeftFingerBase
								{
									OFFSET 0 0 0
									CHANNELS 3 Zrotation Yrotation Xrotation
									JOINT LeftHandIndex1
									{
										OFFSET 0.63269 -0.00000 0.00000
										CHANNELS 3 Zrotation Yrotation Xrotation
										End Site
										{
											OFFSET 0.51009 -0.00000 0.00000
										}
									}
								}
								JOINT LThumb
								{
									OFFSET 0 0 0
									CHANNELS 3 Zrotation Yrotation Xrotation
									End Site
									{
										OFFSET 0.51788 -0.00000 0.51788
									}
								}
							}
						}
					}
				}
				JOINT RightShoulder
				{
					OFFSET 0 0 0
					CHANNELS 3 Zrotation Yrotation Xrotation
					JOINT RightArm
					{
						OFFSET -3.10571 0.91279 -0.33334
						CHANNELS 3 Zrotation Yrotation Xrotation
						JOINT RightForeArm
						{
							OFFSET -5.87120 -0.00000 -0.00000
							CHANNELS 3 Zrotation Yrotation Xrotation
							JOINT RightHand
							{
								OFFSET -3.37589 -0.00000 0.00000
								CHANNELS 3 Zrotation Yrotation Xrotation
								JOINT RightFingerBase
								{
									OFFSET 0 0 0
									CHANNELS 3 Zrotation Yrotation Xrotation
									JOINT RightHandIndex1
									{
										OFFSET -0.60326 -0.00000 0.00000
										CHANNELS 3 Zrotation Yrotation Xrotation
										End Site
										{
											OFFSET -0.48636 -0.00000 0.00000
										}
									}
								}
								JOINT RThumb
								{
									OFFSET 0 0 0
									CHANNELS 3 Zrotation Yrotation Xrotation
									End Site
									{
										OFFSET -0.49379 -0.00000 0.49379
									}
								}
							}
						}
					}
				}
			}
		}
	}
}
MOTION
Frames: 7
Frame Time: .0083333
9.286 17.917 -2.8272 0 0 0 0 0 0 -21 0 0 0 0 0 0 0 0 0 0 0 0 0 0 21 0 0 0 0 0 0 0 0 0 0 0 0 0 0 0 0 0 0 0 0 0 0 -16 0 0 21 0 0 11 0 0 0 -8 0 0 0 0 0 0 0 0 0 0 0 0 0 0 0 0 0 0 0 0 8 0 0 0 0 0 0 0 0 0 0 0 0 0 0 0 0 0
9.2860 17.9170 -2.8272 128.7220 -85.3002 -116.7770 0.0000 0.0000 0.0000 -21.9224 -10.7441 -30.2341 4.8732 13.2396 40.2720 1.5781 -10.1075 -22.5762 0.8858 -5.9994 -16.7826 0.0000 0.0000 0.0000 17.7993 12.8879 -22.3057 -4.7267 -13.0693 39.6284 0.9525 17.2979 10.1077 -5.8687 -14.2999 44.4526 1.4424 1.7006 -8.3378 1.8003 2.0029 0.3983 1.3134 0.9919 5.0786 -8.1832 -3.6866 -16.9194 0.8969 -3.2394 18.5772 1.2334 -2.0543 8.7693 0.0000 -0.0000 0.0000 -71.4905 3.8476 10.1991 20.9176 -31.7321 -6.0066 -0.0000 0.0000 -10.3018 8.0144 31.2379 4.1761 -7.1250 0.0000 -0.0000 -26.9070 59.3906 -9.8965 0.0000 -0.0000 0.0000 82.5058 -1.4343 10.8391 -17.6172 27.6642 -4.3700 0.0000 0.0000 15.9162 -22.5613 26.9149 -10.6511 7.1250 -0.0000 -0.0000 4.4756 -1.2580 4.3898
9.2510 17.9122 -2.8079 132.0630 -85.3584 -120.2140 0.0000 0.0000 0.0000 -21.8400 -10.8423 -29.9601 4.8602 13.2246 40.2150 1.6176 -9.1730 -22.7980 0.6837 -5.2865 -14.7274 0.0000 0.0000 0.0000 18.0044 12.6882 -22.0797 -4.7011 -13.0391 39.5149 0.9306 17.1877 10.4515 -5.8738 -14.3049 44.4730 1.3954 1.6896 -8.3350 1.7513 1.9972 0.3404 1.2864 0.9887 5.0166 -8.0411 -3.6018 -16.6888 1.0285 -3.2095 18.4593 1.2629 -2.0142 8.6842 -0.0000 0.0000 0.0000 -72.2837 4.3229 10.5136 20.7613 -31.5487 -5.9246 -0.0000 0.0000 -10.2108 8.4136 31.2774 4.3912 -7.1250 0.0000 -0.0000 -26.5363 59.5167 -9.8289 -0.0000 0.0000 0.0000 82.6245 -1.6925 10.5799 -17.6748 27.7387 -4.3968 0.0000 0.0000 16.0134 -22.7339 26.5843 -10.6202 7.1250 -0.0000 -0.0000 4.3315 -1.5680 4.2235
9.2153 17.9114 -2.7890 135.7250 -85.4565 -123.9810 0.0000 0.0000 0.0000 -21.6533 -11.0244 -29.6422 4.8548 13.2184 40.1915 1.6875 -7.9180 -23.2708 0.6586 -5.1905 -14.4526 0.0000 0.0000 0.0000 18.2772 12.5607 -21.7864 -4.6683 -13.0003 39.3695 0.9224 17.1702 10.6946 -5.8733 -14.3044 44.4711 1.3491 1.6603 -8.3751 1.7594 1.9614 0.3331 1.3175 0.9696 5.0299 -7.8975 -3.5281 -16.6370 1.0940 -3.1626 18.4127 1.2690 -1.9738 8.6542 -0.0000 0.0000 0.0000 -73.1054 4.6876 10.7820 20.6006 -31.3591 -5.8407 -0.0000 0.0000 -10.2388 8.6287 31.2671 4.5034 -7.1250 0.0000 -0.0000 -26.3086 59.5567 -9.7626 -0.0000 0.0000 0.0000 82.6559 -1.8405 10.4269 -17.7211 27.7986 -4.4184 0.0000 0.0000 15.9199 -22.7234 26.3989 -10.5477 7.1250 -0.0000 -0.0000 4.3151 -1.7630 4.1923
9.1781 17.9087 -2.7704 139.6120 -85.5328 -127.9720 0.0000 0.0000 0.0000 -21.4470 -11.2598 -29.3002 4.8513 13.2143 40.1761 1.7593 -6.7458 -23.8155 0.7084 -5.3792 -14.9933 0.0000 0.0000 0.0000 18.5536 12.4698 -21.4883 -4.6369 -12.9629 39.2296 0.9162 17.1641 10.9017 -5.8732 -14.3043 44.4706 1.2828 1.6336 -8.4651 1.7744 1.9290 0.3477 1.3697 0.9516 5.0936 -7.7567 -3.4637 -16.6716 1.1722 -3.1229 18.4512 1.2774 -1.9373 8.6692 -0.0000 -0.0000 0.0000 -73.9213 4.9586 10.9711 20.4214 -31.1467 -5.7477 -0.0000 0.0000 -10.2451 8.7299 31.2328 4.5524 -7.1250 0.0000 -0.0000 -26.1764 59.5494 -9.7046 -0.0000 -0.0000 0.0000 82.6694 -1.9853 10.3242 -17.7709 27.8629 -4.4417 0.0000 0.0000 15.6636 -22.7199 26.3140 -10.5152 7.1250 -0.0000 -0.0000 4.3068 -1.8521 4.1773
9.1403 17.9053 -2.7523 143.6880 -85.5818 -132.1480 0.0000 0.0000 0.0000 -21.2424 -11.4693 -28.9786 4.8548 13.2184 40.1915 1.8148 -5.7328 -24.2839 0.7599 -5.5672 -15.5337 0.0000 0.0000 0.0000 18.8302 12.3899 -21.1820 -4.6022 -12.9213 39.0745 0.9078 17.1404 11.0983 -5.8741 -14.3052 44.4744 1.2084 1.6084 -8.5586 1.7878 1.8998 0.3553 1.4250 0.9348 5.1517 -7.6184 -3.3951 -16.7003 1.2666 -3.0812 18.5034 1.2921 -1.8987 8.6881 0.0000 0.0000 0.0000 -74.7288 5.2074 11.1083 20.2265 -30.9143 -5.6473 -0.0000 0.0000 -10.2113 8.8184 31.1866 4.5929 -7.1250 0.0000 -0.0000 -26.0469 59.5287 -9.6394 0.0000 0.0000 0.0000 82.6872 -2.1462 10.2067 -17.8190 27.9248 -4.4642 0.0000 0.0000 15.4508 -22.7646 26.2281 -10.5065 7.1250 -0.0000 -0.0000 4.2695 -1.9328 4.1347
9.1016 17.9013 -2.7348 147.8740 -85.6022 -136.4320 0.0000 0.0000 0.0000 -21.0412 -11.6309 -28.6782 4.8654 13.2305 40.2377 1.8553 -4.9888 -24.6517 0.8093 -5.7411 -16.0352 0.0000 0.0000 0.0000 19.1073 12.3430 -20.8575 -4.5667 -12.8786 38.9157 0.8994 17.1119 11.2653 -5.8753 -14.3064 44.4792 1.1222 1.5880 -8.6558 1.7965 1.8787 0.3568 1.4831 0.9218 5.2053 -7.4863 -3.3280 -16.7250 1.3843 -3.0463 18.5765 1.3149 -1.8616 8.7142 -0.0000 -0.0000 0.0000 -75.5083 5.4238 11.2137 20.0186 -30.6647 -5.5408 -0.0000 0.0000 -10.1410 8.8699 31.1277 4.6122 -7.1250 0.0000 -0.0000 -25.9445 59.4882 -9.5729 -0.0000 -0.0000 0.0000 82.7156 -2.3256 10.0576 -17.8629 27.9813 -4.4847 0.0000 0.0000 15.2872 -22.8478 26.1324 -10.5133 7.1250 -0.0000 -0.0000 4.2078 -2.0165 4.0682
